<?xml version="1.0" encoding="utf-8"?>
<!-- Generator: Adobe Illustrator 28.3.0, SVG Export Plug-In . SVG Version: 6.00 Build 0)  -->
<svg version="1.1" id="Layer_1" xmlns="http://www.w3.org/2000/svg" xmlns:xlink="http://www.w3.org/1999/xlink" x="0px" y="0px"
	 viewBox="0 0 1000 1000" style="enable-background:new 0 0 1000 1000;" xml:space="preserve">
<style type="text/css">
	.st0{fill-rule:evenodd;clip-rule:evenodd;fill:#EF4958;}
</style>
<g>
	<path class="st0" d="M1000,94.6c-0.2-1.4-0.8-2.7-1.8-3.6c-1.4-1.4-3.3-1.9-4.9-1.8c-0.8,0-1.7,0.2-2.4,0.6
		c-0.6,0.3-1.8,1.2-1.8,1.2c-141.5,177-283,354-424.6,531c-1.7,2.1-2.2,4.9-1.2,7.3c0.7,1.7,2,2.9,3.6,3.6h309
		c5.2,0,10.2-1.5,14.6-4.3c3.8-2.4,7.5-5.8,9.7-9.7l93.1-116.2c1.4-1.7,2.7-3.5,3.6-5.5c1.9-3.8,2.9-7.9,3-12.2V94.6z"/>
	<path class="st0" d="M0,94c0.6-1.8,1.8-3.5,3.6-4.3c3-1.3,7.3,0.2,9.7,4.3l644.8,806c1.9,2.5,2,5.6,0.6,7.9c-1.1,1.7-2.9,2.8-4.9,3
		H345.5c-3.4-0.3-6.6-1.1-9.7-2.4c-2.9-1.2-5.5-2.9-7.9-4.9L4.9,499.7c-1.6-2-2.8-4.3-3.6-6.7c-0.7-2.2-1.1-4.4-1.2-6.7V94z"/>
</g>
</svg>
