<?xml version="1.0" encoding="utf-8"?>
<!-- Generator: Adobe Illustrator 28.3.0, SVG Export Plug-In . SVG Version: 6.00 Build 0)  -->
<svg version="1.1" id="Layer_1" xmlns="http://www.w3.org/2000/svg" xmlns:xlink="http://www.w3.org/1999/xlink" x="0px" y="0px"
	 viewBox="0 0 3600 720" style="enable-background:new 0 0 3600 720;" xml:space="preserve">
<style type="text/css">
	.st0{fill-rule:evenodd;clip-rule:evenodd;fill:#F04A58;}
	.st1{enable-background:new    ;}
	.st2{fill:#FFFFFF;}
</style>
<g>
	<g>
		<path class="st0" d="M890.5,15.6c-0.2-1.2-0.7-2.3-1.5-3.1c-1.2-1.2-2.8-1.6-4.2-1.5c-0.7,0-1.4,0.2-2,0.5c-0.5,0.3-1.5,1-1.5,1
			C761,162.9,640.8,313.3,520.5,463.6c-1.4,1.8-1.9,4.2-1,6.2c0.6,1.4,1.7,2.5,3.1,3.1h262.5c4.4,0,8.7-1.3,12.4-3.7
			c3.2-2,6.4-4.9,8.2-8.2l79.1-98.7c1.2-1.4,2.3-3,3.1-4.7c1.6-3.2,2.5-6.7,2.5-10.4L890.5,15.6L890.5,15.6z"/>
		<path class="st0" d="M41,15.1c0.5-1.5,1.5-3,3.1-3.7c2.5-1.1,6.2,0.2,8.2,3.7L600,699.8c1.6,2.1,1.7,4.8,0.5,6.7
			c-0.9,1.4-2.5,2.4-4.2,2.5H334.5c-2.9-0.3-5.6-0.9-8.2-2c-2.5-1-4.7-2.5-6.7-4.2l-274.4-343c-1.4-1.7-2.4-3.7-3.1-5.7
			c-0.6-1.9-0.9-3.7-1-5.7L41,15.1L41,15.1z"/>
	</g>
</g>
<g class="st1">
	<path class="st2" d="M1125.2,213.7h64.7c6.8,0,12.4,2.7,16.8,8.1L1390,460.1V219.8c0-1.7,0.6-3.1,1.8-4.3c1.2-1.2,2.6-1.8,4.3-1.8
		h52.4c1.7,0,3.1,0.6,4.3,1.8c1.2,1.2,1.8,2.6,1.8,4.3V564c0,4.1-2,6.1-6.1,6.1h-48.4c-6.8,0-12.4-2.7-16.8-8.1l-261.7-341.2
		c-1.4-1.4-1.5-2.9-0.5-4.6C1122.2,214.5,1123.5,213.7,1125.2,213.7z"/>
	<path class="st2" d="M1495.4,564l261.7-341.2c4.4-5.4,10-8.1,16.8-8.1h48.4c4.1,0,6.1,2,6.1,6.1V565c0,4.1-2,6.1-6.1,6.1h-48.4
		c-6.8,0-12.4-2.7-16.8-8.1L1669,447.9L1580.4,563c-4.4,5.4-10,8.1-16.8,8.1H1499c-1.7,0-3.1-0.8-4.1-2.3
		C1493.9,567.3,1494.1,565.7,1495.4,564z M1711.3,392.9l52.4,68.2V324.7L1711.3,392.9z"/>
	<path class="st2" d="M1907.8,214.7h52.4c4.4,0,6.6,2,6.6,6.1v285.7h142.6c2,0,3.5,0.9,4.3,2.5c0.8,1.7,0.8,3.2-0.3,4.6l-38.2,49.4
		c-4.4,5.4-9.8,8.1-16.3,8.1h-151.2c-1.7,0-3.1-0.6-4.3-1.8c-1.2-1.2-1.8-2.6-1.8-4.3V220.8c0-1.7,0.6-3.1,1.8-4.3
		C1904.7,215.3,1906.1,214.7,1907.8,214.7z"/>
	<path class="st2" d="M2139.5,391.4c0-26.1,4.8-50.4,14.5-72.8c9.7-22.4,22.7-41.9,39.2-58.6c16.5-16.6,35.9-29.6,58.3-39
		c22.4-9.3,46.5-13.8,72.3-13.5c27.5,0.3,52.9,5.9,76.1,16.8c23.2,10.9,43.4,25.8,60.3,44.8c1,1.4,1.4,2.9,1.3,4.6
		c-0.2,1.7-0.9,3.1-2.3,4.1l-40.2,34.1c-1.4,1-2.9,1.4-4.6,1.3c-1.7-0.2-3.1-0.9-4.1-2.3c-11.2-12.9-24.4-23.2-39.7-30.8
		s-31.7-11.3-49.4-10.9c-16,0.3-31.1,3.8-45.3,10.4c-14.3,6.6-26.7,15.6-37.2,27c-10.5,11.4-18.8,24.5-24.9,39.5
		c-6.1,14.9-9.2,30.9-9.2,47.9c0,17,3.2,32.9,9.7,47.9c6.4,14.9,15.1,28,26,39.2c10.9,11.2,23.4,19.9,37.7,26.2
		c14.3,6.3,29.5,9.4,45.8,9.4c17-0.3,32.9-4.2,47.9-11.7c14.9-7.5,27.8-17.6,38.7-30.6c1-1.4,2.4-2.1,4.1-2.3
		c1.7-0.2,3.2,0.4,4.6,1.8l40.2,34.1c1.4,1,2.1,2.4,2.3,4.1c0.2,1.7-0.3,3.2-1.3,4.6c-17.3,19.3-37.9,34.5-61.6,45.6
		c-23.8,11-49.7,16.4-77.9,16c-25.5,0-49.3-4.8-71.5-14.5c-22.2-9.7-41.5-22.9-57.8-39.7c-16.3-16.8-29-36.6-38.2-59.3
		C2144.1,441.9,2139.5,417.5,2139.5,391.4z"/>
	<path class="st2" d="M2504.6,391.4c0-26.1,4.8-50.5,14.5-73.1c9.7-22.6,22.7-42.1,39.2-58.6c16.5-16.5,35.9-29.4,58.3-38.7
		c22.4-9.3,46.5-13.8,72.3-13.5c25.8,0.3,49.9,5.4,72.3,15.3c22.4,9.8,41.8,23.3,58.3,40.2c16.5,17,29.4,36.7,39,59.3
		c9.5,22.6,14.1,46.6,13.7,72c-0.3,25.8-5.4,49.9-15.3,72.3c-9.8,22.4-23.2,41.9-40,58.6c-16.8,16.6-36.4,29.6-58.8,39
		s-46.5,14-72.3,14c-25.5,0-49.3-4.8-71.5-14.5c-22.2-9.7-41.5-22.9-57.8-39.7c-16.3-16.8-29-36.6-38.2-59.3
		C2509.2,441.9,2504.6,417.5,2504.6,391.4z M2569.8,393.9c0,16.6,3.2,32.4,9.7,47.4c6.4,14.9,15.1,28,26,39.2
		c10.9,11.2,23.4,20,37.7,26.5c14.3,6.5,29.5,9.7,45.8,9.7c16-0.3,31.1-3.9,45.3-10.7c14.3-6.8,26.7-15.9,37.4-27.2
		c10.7-11.4,19.1-24.6,25.2-39.7c6.1-15.1,9-31,8.7-47.6c0-16.6-3.2-32.4-9.7-47.4c-6.5-14.9-15.1-27.9-26-39
		c-10.9-11-23.5-19.8-37.9-26.2c-14.4-6.4-29.6-9.7-45.6-9.7c-16,0.3-31.1,3.8-45.3,10.4c-14.3,6.6-26.7,15.6-37.2,27
		c-10.5,11.4-18.8,24.5-24.9,39.5C2572.8,361,2569.8,376.9,2569.8,393.9z"/>
	<path class="st2" d="M2930.8,219.8c0-1.7,0.6-3.1,1.8-4.3c1.2-1.2,2.6-1.8,4.3-1.8h268.8c1.7,0,3.1,0.6,4.3,1.8
		c1.2,1.2,1.8,2.6,1.8,4.3v74.9c0,4.8-1.5,9-4.6,12.7l-80.5,105.4L3241.9,563c1,1.7,1.1,3.3,0.3,4.8c-0.9,1.5-2.1,2.3-3.8,2.3h-64.7
		c-6.8,0-12.4-2.7-16.8-8.1l-111.5-145.1c-2.4-2.7-2.4-5.3,0-7.6l100.3-130.9H2996V564c0,4.1-2.2,6.1-6.6,6.1h-52.4
		c-1.7,0-3.1-0.6-4.3-1.8c-1.2-1.2-1.8-2.6-1.8-4.3V219.8z"/>
	<path class="st2" d="M3283.6,220.8c0-1.7,0.6-3.1,1.8-4.3c1.2-1.2,2.6-1.8,4.3-1.8h113.5c24.4,0,47.4,4.6,68.7,13.7
		c21.4,9.2,40.1,21.6,56,37.4c16,15.8,28.8,34.3,38.4,55.5c9.7,21.2,14.7,43.9,15,68c0.7,25.1-3.8,48.7-13.5,70.8
		c-9.7,22.1-22.8,41.3-39.5,57.8c-16.6,16.5-36.1,29.5-58.3,39c-22.2,9.5-45.9,14.3-71,14.3h-109.5c-1.7,0-3.1-0.6-4.3-1.8
		c-1.2-1.2-1.8-2.6-1.8-4.3V220.8z M3348.8,506.4h54.5c15.6,0,30.3-3,44-8.9c13.7-5.9,25.8-14.1,36.2-24.4
		c10.4-10.4,18.5-22.4,24.4-36.2c5.9-13.7,8.9-28.4,8.9-44c0-15.6-3-30.3-8.9-44c-5.9-13.7-14.1-25.8-24.4-36.2
		c-10.4-10.4-22.4-18.5-36.2-24.4c-13.7-5.9-28.4-8.9-44-8.9h-54.5V506.4z"/>
</g>
</svg>
